<svg width="29" height="29" viewBox="0 0 29 29" fill="none" xmlns="http://www.w3.org/2000/svg">
<mask id="mask0_1848_1640" style="mask-type:luminance" maskUnits="userSpaceOnUse" x="0" y="0" width="29" height="29">
<rect x="0.5" y="0.5" width="28" height="28" fill="white"/>
</mask>
<g mask="url(#mask0_1848_1640)">
<path fill-rule="evenodd" clip-rule="evenodd" d="M16.8346 6.3335H7.5013C6.21447 6.3335 5.16797 7.38 5.16797 8.66683V11.9592V14.9108V27.3335L12.168 23.1323L19.168 27.3335V14.912V13.127V8.66683C19.168 7.38 18.1215 6.3335 16.8346 6.3335ZM16.8333 23.2117L12.1667 20.4129L7.5 23.2117V14.912V11.9604V8.66687H16.8333V13.1259V14.9109V23.2117Z" fill="#878A92"/>
<path fill-rule="evenodd" clip-rule="evenodd" d="M21.4987 1.6665H20.332H17.9964H12.1654C10.8785 1.6665 9.83203 2.713 9.83203 3.99984H12.1654H17.5157H19.1654C20.4522 3.99984 21.4987 5.04634 21.4987 6.33317V7.98284V8.45884V10.2438V17.2987V18.5167L23.832 21.4205V10.2438V8.45884V7.49984V5.1665V3.99984C23.832 2.713 22.7855 1.6665 21.4987 1.6665Z" fill="#878A92"/>
</g>
</svg>
