<svg width="29" height="29" viewBox="0 0 29 29" fill="none" xmlns="http://www.w3.org/2000/svg">
<mask id="mask0_1848_1647" style="mask-type:luminance" maskUnits="userSpaceOnUse" x="0" y="0" width="29" height="29">
<rect x="0.25" y="0.5" width="28" height="28" fill="white"/>
</mask>
<g mask="url(#mask0_1848_1647)">
<path fill-rule="evenodd" clip-rule="evenodd" d="M14.2487 19.1668C16.8224 19.1668 18.9154 17.0738 18.9154 14.5002C18.9154 11.9265 16.8224 9.8335 14.2487 9.8335C11.675 9.8335 9.58203 11.9265 9.58203 14.5002C9.58203 17.0738 11.675 19.1668 14.2487 19.1668ZM14.2474 12.1669C15.5121 12.1669 16.5807 13.2355 16.5807 14.5002C16.5807 15.7649 15.5121 16.8335 14.2474 16.8335C12.9827 16.8335 11.9141 15.7649 11.9141 14.5002C11.9141 13.2355 12.9827 12.1669 14.2474 12.1669Z" fill="#878A92"/>
<path fill-rule="evenodd" clip-rule="evenodd" d="M3.57057 19.3255L4.73724 21.3438C5.35674 22.4137 6.84774 22.815 7.92224 22.1955L8.5394 21.8385C9.2184 22.3717 9.9639 22.8092 10.7514 23.1358V23.8335C10.7514 25.1203 11.7979 26.1668 13.0847 26.1668H15.4181C16.7049 26.1668 17.7514 25.1203 17.7514 23.8335V23.1358C18.5389 22.8092 19.2844 22.3717 19.9634 21.8397L20.5806 22.1967C21.6574 22.815 23.1449 22.416 23.7667 21.3438L24.9322 19.3267C25.5762 18.2125 25.1936 16.7822 24.0794 16.1393L23.4902 15.7987C23.5532 15.3658 23.5847 14.933 23.5847 14.5002C23.5847 14.0673 23.5532 13.6333 23.4902 13.204L24.0794 12.8633C25.1936 12.2193 25.5762 10.7902 24.9322 9.676L23.7667 7.65883C23.1472 6.5855 21.6574 6.183 20.5806 6.80483L19.9634 7.16183C19.2844 6.62866 18.5389 6.19116 17.7514 5.8645V5.16683C17.7514 3.88 16.7049 2.8335 15.4181 2.8335H13.0847C11.7979 2.8335 10.7514 3.88 10.7514 5.16683V5.8645C9.9639 6.19116 9.2184 6.62866 8.5394 7.16066L7.92224 6.80366C6.84424 6.18416 5.35557 6.5855 4.73607 7.65766L3.57057 9.67483C2.92657 10.789 3.30924 12.2193 4.4234 12.8622L5.01257 13.2028C4.94957 13.6333 4.91807 14.0673 4.91807 14.5002C4.91807 14.933 4.94957 15.3658 5.01257 15.7963L4.4234 16.137C3.30924 16.781 2.92657 18.2113 3.57057 19.3255ZM7.45091 16.1078C7.31907 15.5793 7.25141 15.038 7.25141 14.5002C7.25141 13.9612 7.31907 13.4198 7.44974 12.8925C7.57574 12.3873 7.35291 11.86 6.90141 11.5998L5.59124 10.8415L6.75557 8.82434L8.09141 9.59667C8.53941 9.85451 9.10291 9.78917 9.47741 9.43101C10.2742 8.67617 11.2356 8.11151 12.2587 7.79884C12.7499 7.64951 13.0847 7.19567 13.0847 6.68351V5.16684H15.4181V6.68351C15.4181 7.19567 15.7529 7.64951 16.2441 7.79884C17.2672 8.11267 18.2286 8.67617 19.0254 9.43101C19.3999 9.78917 19.9657 9.85334 20.4114 9.59667L21.7461 8.82551L22.9127 10.8427L21.6014 11.5998C21.1499 11.8612 20.9271 12.3885 21.0531 12.8925C21.1837 13.4198 21.2514 13.9612 21.2514 14.5002C21.2514 15.038 21.1837 15.5793 21.0519 16.1078C20.9271 16.613 21.1499 17.1403 21.6014 17.4005L22.9116 18.1577L21.7472 20.1748L20.4114 19.4037C19.9646 19.1458 19.3999 19.21 19.0254 19.5693C18.2286 20.3242 17.2672 20.8888 16.2441 21.2015C15.7529 21.3508 15.4181 21.8047 15.4181 22.3168L15.4204 23.8335H13.0847V22.3168C13.0847 21.8047 12.7499 21.3508 12.2587 21.2015C11.2356 20.8877 10.2742 20.3242 9.47741 19.5693C9.25574 19.357 8.96641 19.2485 8.67474 19.2485C8.47407 19.2485 8.27341 19.2998 8.09141 19.4048L6.75674 20.1772L5.59007 18.16L6.90141 17.4005C7.35291 17.1403 7.57574 16.613 7.45091 16.1078Z" fill="#878A92"/>
</g>
</svg>
