<svg width="28" height="29" viewBox="0 0 24 17" fill="none" xmlns="http://www.w3.org/2000/svg">
    <path fill-rule="evenodd" clip-rule="evenodd"
        d="M15.25 7.3335H23.4167V9.66683H15.25V7.3335ZM16.4141 12.0001H23.4141V14.3335H16.4141V12.0001ZM14.082 2.66684H23.4154V5.00017H14.082V2.66684ZM2.41536 16.6668H11.7487H12.9154H14.082V15.5002C14.082 12.2837 11.4652 9.66684 8.2487 9.66684H5.91537C2.69886 9.66684 0.0820312 12.2837 0.0820312 15.5002V16.6668H1.2487H2.41536ZM7.08333 8.50016C9.41083 8.50016 11.1667 6.74433 11.1667 4.41683C11.1667 2.08933 9.41083 0.333496 7.08333 0.333496C4.75583 0.333496 3 2.08933 3 4.41683C3 6.74433 4.75583 8.50016 7.08333 8.50016Z"
        fill="#878A92" />
</svg>